<svg height="512pt" viewBox="0 0 512 512" width="512pt" xmlns="http://www.w3.org/2000/svg" xmlns:xlink="http://www.w3.org/1999/xlink"><linearGradient id="a" gradientUnits="userSpaceOnUse" x1="256" x2="256" y1="0" y2="512"><stop offset="0" stop-color="#2af598"/><stop offset="1" stop-color="#009efd"/></linearGradient><path d="m211 0c-33.085938 0-60 26.914062-60 60v28c0 33.085938 26.914062 60 60 60s60-26.914062 60-60v-28c0-33.085938-26.914062-60-60-60zm20 88c0 11.027344-8.972656 20-20 20s-20-8.972656-20-20v-28c0-11.027344 8.972656-20 20-20s20 8.972656 20 20zm-111 58h-40v-144h40zm-80 0h-40v-144h40zm20 218c-33.085938 0-60 26.914062-60 60v28c0 33.085938 26.914062 60 60 60s60-26.914062 60-60v-28c0-33.085938-26.914062-60-60-60zm20 88c0 11.027344-8.972656 20-20 20s-20-8.972656-20-20v-28c0-11.027344 8.972656-20 20-20s20 8.972656 20 20zm71-86h40v144h-40zm80 0h40v144h-40zm-97-183c-33.085938 0-60 26.914062-60 60v28c0 33.085938 26.914062 60 60 60s60-26.914062 60-60v-28c0-33.085938-26.914062-60-60-60zm20 88c0 11.027344-8.972656 20-20 20s-20-8.972656-20-20v-28c0-11.027344 8.972656-20 20-20s20 8.972656 20 20zm116 58h-40v-144h40zm-230 0h-40v-144h40zm472-72c0 19.328125-15.671875 35-35 35-11.449219 0-21.613281-5.5-28-14h-139v-40h137.613281c6.234375-9.625 17.0625-16 29.386719-16 19.328125 0 35 15.671875 35 35zm-148-163h-54v-40h94v70h43.613281c6.234375-9.625 17.0625-16 29.386719-16 19.328125 0 35 15.671875 35 35s-15.671875 35-35 35c-11.449219 0-21.613281-5.5-28-14h-85zm148 275c0 19.328125-15.671875 35-35 35-12.324219 0-23.152344-6.375-29.386719-16h-43.613281v70h-94v-40h54v-70h85c6.386719-8.5 16.550781-14 28-14 19.328125 0 35 15.671875 35 35zm0 0" fill="url(#a)"/></svg>